<svg xmlns="http://www.w3.org/2000/svg" viewBox="0 0 103.98 103.97"><defs><style>.cls-1{fill:#fff;}</style></defs><g id="Layer_2" data-name="Layer 2"><g id="Layer_1-2" data-name="Layer 1"><path class="cls-1" d="M103.94,52c0,7.41.09,14.82,0,22.23A30.27,30.27,0,0,1,81.32,103a27.85,27.85,0,0,1-7.14,1c-14.79,0-29.58,0-44.37,0a29,29,0,0,1-18.28-6.48A29.78,29.78,0,0,1,.63,79.82,27,27,0,0,1,0,74.23C0,59.46,0,44.7,0,29.94A29.29,29.29,0,0,1,9.53,8.24,29.5,29.5,0,0,1,24.65.52,30,30,0,0,1,30.33,0C44.87,0,59.42,0,74,0A29.3,29.3,0,0,1,94.79,8.58a29.32,29.32,0,0,1,8.71,16.53,34,34,0,0,1,.43,5.24c0,7.21,0,14.42,0,21.63ZM52,8H30.46a22.82,22.82,0,0,0-7.2,1.08A22.07,22.07,0,0,0,8,30Q8,52,8,74a22.74,22.74,0,0,0,.42,4.2A22.08,22.08,0,0,0,30.08,96c3,0,5.89,0,8.83,0H73.77a20.79,20.79,0,0,0,9.71-2.23c8.08-4.2,12.36-10.91,12.44-20,.12-14.49,0-29,0-43.46a23.08,23.08,0,0,0-.64-5.42A22.1,22.1,0,0,0,74.06,8Z"/><path class="cls-1" d="M80,51.58A28,28,0,1,1,51.4,24,28,28,0,0,1,80,51.58ZM52,72A20,20,0,1,0,32,52,19.95,19.95,0,0,0,52,72Z"/><path class="cls-1" d="M84,16a4,4,0,1,1-4,4A4,4,0,0,1,84,16Z"/></g></g></svg>